<svg xmlns="http://www.w3.org/2000/svg" viewBox="0 0 640 640" role="img" aria-label="Демонстрационный портрет">
  <defs>
    <linearGradient id="bg" x1="0" y1="0" x2="1" y2="1">
      <stop stop-color="#e3c3a8"/>
      <stop offset="1" stop-color="#9c725f"/>
    </linearGradient>
  </defs>
  <rect width="640" height="640" fill="url(#bg)"/>
  <circle cx="320" cy="250" r="142" fill="#422e2c"/>
  <ellipse cx="320" cy="700" rx="254" ry="314" fill="#303e47"/>
  <ellipse cx="320" cy="274" rx="110" ry="138" fill="#d5a98d"/>
  <path d="M208 240c8-110 57-150 112-150 85 0 124 66 114 156-35-16-74-52-88-90-22 50-71 77-138 84Z" fill="#422e2c"/>
  <path d="M278 358h84v78c-27 31-57 31-84 0Z" fill="#c99679"/>
  <path d="M225 512c54-23 136-23 190 0" fill="none" stroke="#1f2c33" stroke-width="35"/>
</svg>
